<svg version="1.1" id="Layer_1" xmlns="http://www.w3.org/2000/svg" xmlns:xlink="http://www.w3.org/1999/xlink" x="0px" y="0px"
	 width="100%" viewBox="0 0 404 128" enable-background="new 0 0 404 128" xml:space="preserve">
<path fill="#FCFCFD" opacity="1.000000" stroke="none" 
	d="
M266.000000,129.000000 
	C177.333359,129.000000 89.166710,129.000000 1.000047,129.000000 
	C1.000031,86.333366 1.000031,43.666729 1.000016,1.000070 
	C135.666611,1.000047 270.333221,1.000047 404.999878,1.000023 
	C404.999908,43.666595 404.999908,86.333191 404.999939,128.999893 
	C358.833344,129.000000 312.666656,129.000000 266.000000,129.000000 
M29.136253,16.011282 
	C21.543041,16.011282 13.949828,16.011282 6.283503,16.011282 
	C5.968151,18.125036 5.424294,19.890402 5.490285,21.632671 
	C5.924267,33.090462 6.489731,44.543274 6.870814,56.865402 
	C7.226679,59.626362 7.094552,62.565865 8.027480,65.115692 
	C11.158659,73.673645 14.669703,82.092613 18.008411,91.166054 
	C18.627064,91.767311 19.245718,92.368568 19.969978,93.657867 
	C23.643118,97.523766 27.316257,101.389671 31.079624,105.926277 
	C33.625549,107.932381 36.171471,109.938484 38.899071,112.635002 
	C41.691418,114.702118 44.591457,116.640427 47.252289,118.864876 
	C51.889832,122.741844 56.396038,123.429001 61.681534,118.913269 
	C72.964806,111.373352 82.164566,101.685745 90.338043,90.966011 
	C91.196037,89.840736 91.552513,88.333061 92.817146,86.890244 
	C93.554054,85.290573 94.290970,83.690910 95.298119,81.417534 
	C95.620888,80.274094 95.943649,79.130661 96.615685,77.741707 
	C96.825172,77.533112 96.952179,77.282684 97.154037,76.332962 
	C97.192322,75.884102 97.230606,75.435242 97.618645,74.719574 
	C97.826859,74.496170 97.945122,74.232422 98.144859,73.201256 
	C98.210403,72.459793 98.275948,71.718330 98.668221,70.713882 
	C98.858185,70.493645 98.962509,70.238396 99.142365,69.099091 
	C99.871574,63.171169 100.866150,57.261421 101.273643,51.311466 
	C102.072281,39.650112 102.543762,27.966347 103.123955,16.805271 
	C94.703094,16.805271 87.528755,17.588396 80.615295,16.581076 
	C73.940742,15.608566 67.535240,12.789550 60.919773,10.111745 
	C59.385296,8.695765 57.950924,7.146894 56.291466,5.896828 
	C54.127800,4.266941 52.651978,5.050015 51.311611,7.852804 
	C44.203148,10.615961 37.094685,13.379117 29.136253,16.011282 
M325.326416,77.624657 
	C323.492859,78.352142 321.659332,79.079628 319.825775,79.807114 
	C319.863953,79.356949 319.902130,78.906792 319.940338,78.456627 
	C316.085022,78.190575 312.229736,77.924522 308.386475,77.659302 
	C308.386475,86.141136 308.386475,93.708290 308.386475,101.356239 
	C312.306702,101.356239 315.886261,101.356239 319.887909,101.356239 
	C319.887909,97.253853 319.906891,93.456474 319.881714,89.659386 
	C319.862579,86.776054 320.843628,84.685829 324.082184,84.667931 
	C327.379578,84.649704 327.624969,87.052788 327.627716,89.534058 
	C327.632080,93.479767 327.628906,97.425484 327.628906,101.298264 
	C331.842712,101.298264 335.408203,101.298264 339.314301,101.298264 
	C339.314301,96.952293 338.889099,92.899734 339.515076,89.016647 
	C339.780518,87.370255 342.252289,86.079536 343.721252,84.627159 
	C344.847107,86.139679 346.754791,87.560760 346.944489,89.182762 
	C347.414368,93.201088 347.098785,97.311264 347.098785,101.312378 
	C351.497162,101.312378 355.079468,101.312378 358.873810,101.312378 
	C358.873810,95.810081 359.028809,90.654129 358.826324,85.512245 
	C358.654694,81.154228 356.206085,77.863251 351.872223,77.722839 
	C347.307587,77.574959 342.700287,78.743660 338.899750,79.235184 
	C334.319519,78.582283 330.225891,77.998749 325.326416,77.624657 
M111.571251,101.657082 
	C115.875145,102.211105 119.640068,101.834427 120.161430,96.429459 
	C121.171188,96.340553 121.864113,96.118141 122.480621,96.250824 
	C127.369995,97.303101 134.170547,92.888077 136.604965,101.130867 
	C136.684921,101.401634 137.479462,101.593567 137.943039,101.597992 
	C141.803802,101.634796 145.665070,101.618881 150.080124,101.618881 
	C145.017258,90.941429 140.446213,81.171967 135.707748,71.484413 
	C135.163574,70.371895 133.780594,69.129257 132.624680,68.941071 
	C122.502007,67.293098 120.716705,68.295509 116.357658,77.441025 
	C115.072128,80.138153 113.790527,82.837151 112.512123,85.537659 
	C110.065491,90.705910 107.622444,95.875862 104.888481,101.657150 
	C107.440140,101.657150 109.074760,101.657150 111.571251,101.657082 
M229.279724,87.020477 
	C228.680298,92.534264 229.905869,97.496140 234.936157,100.392784 
	C240.133804,103.385811 245.463974,102.680984 248.581802,100.570168 
	C254.115570,101.121071 257.941071,101.501915 261.914124,101.897446 
	C261.914124,90.401314 261.914124,79.840134 261.914124,69.233521 
	C257.978302,69.233521 254.302032,69.233521 250.209152,69.233521 
	C250.209152,72.696136 250.209152,75.770645 250.209152,78.957832 
	C238.298981,75.505028 232.509827,77.611877 229.279724,87.020477 
M197.259506,101.797066 
	C201.947937,101.174477 206.641266,100.036255 211.323380,100.080544 
	C215.636108,100.121346 219.936813,101.433006 223.752975,102.099327 
	C223.752975,96.284721 223.772903,91.673317 223.747452,87.062149 
	C223.721313,82.323967 221.611465,78.581596 216.829987,78.147789 
	C210.616989,77.584106 204.251144,77.631569 198.065567,78.372162 
	C195.621887,78.664742 193.486206,81.529907 191.210266,83.223679 
	C191.536957,83.765045 191.863632,84.306404 192.190323,84.847771 
	C196.527573,84.467102 200.888458,86.804993 205.304703,83.420151 
	C206.667450,82.375664 209.739288,83.561050 212.028580,83.725441 
	C212.009567,84.385147 211.990555,85.044861 211.971542,85.704567 
	C207.167923,86.626839 202.345688,87.463341 197.567032,88.500618 
	C194.214279,89.228378 190.995499,90.436676 190.660614,94.559868 
	C190.328003,98.655449 193.088562,100.422104 197.259506,101.797066 
M137.431122,31.001001 
	C127.158051,31.001001 116.884987,31.001001 106.447464,31.001001 
	C106.447464,33.980846 106.447464,36.383682 106.447464,39.360096 
	C110.764160,39.360096 114.826447,39.360096 119.404785,39.360096 
	C119.404785,47.836334 119.404785,55.742619 119.404785,63.556007 
	C123.874039,63.556007 127.804420,63.556007 132.268539,63.556007 
	C132.268539,55.376503 132.268539,47.481068 132.268539,39.031330 
	C136.855255,39.031330 140.908813,39.031330 144.724030,39.031330 
	C144.724030,36.041985 144.724030,33.635666 144.724030,31.000998 
	C142.376709,31.000998 140.394226,31.000998 137.431122,31.001001 
M384.446533,82.810776 
	C383.302368,85.886002 382.158234,88.961235 380.750061,92.746056 
	C376.701324,84.903893 376.852173,72.696526 362.908356,78.901756 
	C365.602448,84.002808 368.575043,89.330292 371.238068,94.808304 
	C372.456268,97.314285 373.064819,100.116638 373.949829,102.784599 
	C370.991791,103.293869 368.031952,103.793091 365.078735,104.328903 
	C364.802429,104.379028 364.568024,104.660355 364.037323,105.024071 
	C364.368011,106.797066 364.720581,108.687302 365.094208,110.690506 
	C368.016083,110.832718 370.629425,111.506332 372.945465,110.947624 
	C376.638824,110.056633 381.839142,109.378654 383.404968,106.794495 
	C388.854431,97.800926 393.015594,88.026741 397.779083,78.320122 
	C387.026276,76.941391 386.670868,77.054024 384.446533,82.810776 
M296.055328,79.197647 
	C289.105591,76.499229 282.037720,76.118111 275.177246,79.113152 
	C266.590698,82.861725 265.350525,93.416962 272.614685,98.978485 
	C278.763275,103.685928 293.610870,103.296509 299.490265,98.208344 
	C300.251770,97.549332 300.710480,96.540405 301.309448,95.693581 
	C301.142242,95.265572 300.975067,94.837563 300.807861,94.409561 
	C296.360107,95.000710 291.906891,95.553894 287.466431,96.195465 
	C284.135925,96.676659 281.225403,96.525124 280.068115,91.860817 
	C287.814941,91.860817 295.205292,91.860817 302.576233,91.860817 
	C302.451660,84.948280 301.604401,83.248375 296.055328,79.197647 
M286.595734,52.676086 
	C286.451569,47.846565 284.835419,43.666973 280.207703,41.650131 
	C272.851105,38.443989 265.215759,38.163147 258.011902,41.909790 
	C250.141678,46.003014 249.659256,56.142418 256.766815,61.351295 
	C262.794281,65.768616 277.602570,65.318375 283.301453,60.482243 
	C284.074219,59.826477 284.571075,58.845558 285.195679,58.015198 
	C285.033630,57.533615 284.871552,57.052032 284.709503,56.570450 
	C280.273804,57.185921 275.822754,57.709324 271.407410,58.446568 
	C267.993347,59.016617 265.287079,58.610909 263.824280,54.223995 
	C266.307281,54.223995 268.244690,54.284626 270.177155,54.212452 
	C275.609161,54.009567 281.039124,53.751995 286.595734,52.676086 
M161.250778,55.936741 
	C162.442352,55.365929 163.621262,54.334984 164.827637,54.301777 
	C170.941193,54.133507 177.061890,54.224304 183.336578,54.224304 
	C183.778458,48.432419 182.210663,43.990631 177.272919,41.731194 
	C169.967072,38.388149 162.306000,38.167229 155.086746,41.849838 
	C147.008316,45.970718 146.607025,56.471798 154.023102,61.582111 
	C159.638412,65.451553 173.811279,65.195107 179.423218,61.232555 
	C180.604126,60.398735 182.089905,59.996696 183.435196,59.395699 
	C182.887604,58.492188 182.340012,57.588676 181.792419,56.685165 
	C177.515381,57.191608 173.246292,57.973022 168.958191,58.097015 
	C166.548615,58.166691 164.107651,57.150219 161.250778,55.936741 
M295.958313,56.642311 
	C294.064697,56.829964 292.171112,57.017616 289.738586,57.258678 
	C290.702362,58.765766 291.168671,59.849129 291.936951,60.638756 
	C296.882538,65.721909 314.679169,65.698944 319.670074,60.657906 
	C323.080261,57.213463 322.462646,52.433105 317.828339,50.481743 
	C314.531982,49.093754 310.758057,48.842747 307.199829,48.072517 
	C305.408508,47.684757 303.622833,47.270752 301.834625,46.868618 
	C301.873138,46.240616 301.911682,45.612617 301.950195,44.984615 
	C303.865875,44.984615 305.802521,44.803337 307.692932,45.021862 
	C311.791718,45.495663 315.866882,46.173923 319.951691,46.768581 
	C320.076996,46.227135 320.202271,45.685684 320.327545,45.144238 
	C319.887878,44.478645 319.538574,43.725952 318.994324,43.161118 
	C314.306244,38.295547 298.114288,37.940220 293.201385,42.564632 
	C289.636719,45.919991 290.734253,50.990547 295.815033,52.805489 
	C299.216949,54.020721 302.963226,54.246956 306.524597,55.052116 
	C308.091919,55.406448 309.582520,56.099869 311.107971,56.639336 
	C310.954376,57.388073 310.800781,58.136814 310.647186,58.885555 
	C307.987305,58.542343 305.316681,58.265018 302.671051,57.834274 
	C300.690491,57.511806 298.742126,56.991680 295.958313,56.642311 
M165.004013,85.620140 
	C167.637726,85.183769 171.312408,83.438263 172.713364,84.552231 
	C177.228729,88.142639 181.301117,85.451920 185.524307,85.553993 
	C186.167770,84.736435 186.811234,83.918877 187.454681,83.101318 
	C185.406555,81.978447 183.304031,80.943466 181.320496,79.716187 
	C175.417862,76.064034 162.537247,76.327400 156.869690,80.287712 
	C152.530045,83.320091 150.779572,88.494377 152.392441,93.522232 
	C154.161072,99.035629 160.121628,102.036720 169.457977,102.114532 
	C179.118774,102.195053 183.853943,99.722725 186.368454,92.434181 
	C182.231888,92.775345 178.055786,92.147591 174.900421,93.655602 
	C171.794098,95.140198 169.150131,96.489708 166.163223,94.706886 
	C162.791855,92.694595 163.295822,89.448105 165.004013,85.620140 
M224.024658,63.775578 
	C238.451843,65.410828 244.775223,63.181145 247.509186,55.244663 
	C242.933395,55.427963 238.440720,52.691364 233.978226,56.882778 
	C232.766708,58.020691 228.073486,56.971252 226.262405,55.423313 
	C225.030960,54.370777 225.034592,49.592403 226.280243,48.468048 
	C228.057663,46.863697 232.576004,45.671810 233.994003,46.777798 
	C238.530487,50.316040 242.567429,47.768032 247.136459,47.049683 
	C245.408340,44.738144 243.609894,41.947468 241.296188,41.420948 
	C236.220398,40.265873 230.846893,39.628635 225.662430,39.932243 
	C218.416733,40.356548 213.889771,44.815319 213.251816,50.699718 
	C212.575668,56.936260 215.682190,60.939461 224.024658,63.775578 
M190.680695,39.981236 
	C190.152222,40.296284 189.166031,40.606094 189.162369,40.927151 
	C189.075821,48.485363 189.095261,56.044785 189.095261,63.514408 
	C193.303680,63.514408 196.867828,63.514408 200.981812,63.514408 
	C200.981812,59.550274 200.509827,55.836811 201.164536,52.333935 
	C201.538040,50.335655 203.901321,47.043530 205.106201,47.155602 
	C210.241653,47.633282 210.985077,44.286240 212.296616,40.942204 
	C207.193893,38.902943 207.348007,39.466774 201.758789,40.994427 
	C198.700027,41.830460 195.016769,40.381779 190.680695,39.981236 
z"/>
<path fill="#F2F2F7" opacity="1.000000" stroke="none" 
	d="
M19.864372,92.969826 
	C19.245718,92.368568 18.627064,91.767311 18.051346,90.426186 
	C18.037302,88.715683 18.204441,87.663811 17.886871,86.787628 
	C15.865533,81.210686 13.529332,75.739624 11.709265,70.100571 
	C10.219803,65.485817 9.303581,60.686039 8.068968,55.514168 
	C8.004704,42.689861 8.004704,30.319681 8.004704,17.973082 
	C15.477468,17.973082 23.233753,17.973082 31.401802,18.037292 
	C38.154980,15.756792 44.532001,13.499505 50.790173,10.950421 
	C51.525375,10.650958 51.606705,8.746189 51.991154,7.585601 
	C52.651978,5.050015 54.127800,4.266941 56.291466,5.896828 
	C57.950924,7.146894 59.385296,8.695765 60.595886,10.506061 
	C59.965794,10.984432 59.616634,11.007427 59.372250,11.179356 
	C59.257069,11.260386 59.243717,11.768190 59.352070,11.844598 
	C65.788918,16.383789 73.138817,18.410076 80.831802,18.904123 
	C87.149597,19.309855 93.514198,18.986851 100.025269,18.986851 
	C100.261002,22.577110 100.806282,26.518602 100.727936,30.447660 
	C100.397202,47.033783 99.417046,63.544437 93.826126,79.411545 
	C93.590393,80.080566 94.598969,81.188034 95.027878,82.091240 
	C94.290970,83.690910 93.554054,85.290573 92.225899,86.788788 
	C91.092285,86.886581 90.312553,86.920578 90.042046,87.309113 
	C81.939751,98.946480 71.968063,108.726578 60.238785,117.249947 
	C55.751495,120.840378 52.079445,119.664322 48.092690,116.754395 
	C45.290333,114.708961 41.864712,113.517410 38.717400,111.944580 
	C36.171471,109.938484 33.625549,107.932381 31.346222,105.409576 
	C28.347479,100.875076 25.108177,96.835258 21.764196,92.884018 
	C21.514015,92.588409 20.515181,92.926384 19.864372,92.969826 
M52.926449,106.783936 
	C53.570671,107.003838 54.214893,107.223740 54.859119,107.443634 
	C54.914238,106.603867 54.969357,105.764099 55.028542,104.630127 
	C55.028542,104.630127 55.008331,104.336594 55.538815,104.023659 
	C55.944427,103.976387 56.350040,103.929123 57.175335,103.827271 
	C57.273304,103.729240 57.371277,103.631210 57.469246,103.533173 
	C57.275375,103.355324 57.081509,103.177467 56.826473,102.623390 
	C56.826473,102.623390 56.871368,102.244873 56.722740,101.677803 
	C56.388859,101.504997 56.054977,101.332191 55.122795,101.153236 
	C54.726467,101.109398 54.330135,101.065567 54.219490,100.360344 
	C54.280067,99.839661 54.340645,99.318977 54.401222,98.798294 
	C53.898685,98.924377 53.396149,99.050468 52.252632,98.844910 
	C51.865704,97.498199 51.478775,96.151489 51.292744,94.430878 
	C51.292744,94.430878 51.457195,94.039566 52.209679,94.052849 
	C54.219711,94.396355 56.229740,94.739861 58.276604,95.761108 
	C59.048733,97.954643 60.946655,100.522766 60.366508,102.266357 
	C59.019188,106.315636 63.134254,105.485344 63.444538,107.154846 
	C95.029045,87.314171 96.342918,56.354168 94.817627,24.563499 
	C86.896576,24.563499 79.310944,24.563499 71.737183,24.563499 
	C71.901360,29.442322 71.380318,29.906670 64.992149,29.278069 
	C64.404663,28.362646 63.817177,27.447224 63.453999,25.925005 
	C62.642612,24.973961 61.831230,24.022919 60.606613,22.521921 
	C59.280956,22.615946 57.955299,22.709970 56.629642,22.803995 
	C57.025208,24.551460 57.420769,26.298927 57.938061,28.528173 
	C57.938061,28.528173 57.981655,29.023180 57.725910,29.227692 
	C57.725910,29.227692 57.480675,29.444685 56.709915,29.686712 
	C52.307888,28.928625 50.833401,26.541573 52.688438,23.622442 
	C53.782475,21.900846 54.265415,19.790913 55.023182,17.855627 
	C54.545120,17.589548 54.067059,17.323471 53.588993,17.057392 
	C41.846790,25.261360 28.829723,26.023685 15.398080,23.557318 
	C9.398836,58.156132 21.401510,91.310669 44.841930,105.757187 
	C46.599495,104.829308 48.292923,103.935295 49.959606,103.733864 
	C50.833241,104.537552 51.706875,105.341240 52.926449,106.783936 
M56.293388,109.297203 
	C56.140980,109.393578 55.988571,109.489944 55.836159,109.586311 
	C56.070778,109.566765 56.305401,109.547211 56.293388,109.297203 
M54.158588,16.583155 
	C54.346138,16.665218 54.533691,16.747284 54.721241,16.829348 
	C54.674568,16.631308 54.627892,16.433270 54.158588,16.583155 
z"/>
<path fill="#0C0C69" opacity="1.000000" stroke="none" 
	d="
M325.729340,77.519936 
	C330.225891,77.998749 334.319519,78.582283 338.899750,79.235184 
	C342.700287,78.743660 347.307587,77.574959 351.872223,77.722839 
	C356.206085,77.863251 358.654694,81.154228 358.826324,85.512245 
	C359.028809,90.654129 358.873810,95.810081 358.873810,101.312378 
	C355.079468,101.312378 351.497162,101.312378 347.098785,101.312378 
	C347.098785,97.311264 347.414368,93.201088 346.944489,89.182762 
	C346.754791,87.560760 344.847107,86.139679 343.721252,84.627167 
	C342.252289,86.079536 339.780518,87.370255 339.515076,89.016647 
	C338.889099,92.899734 339.314301,96.952293 339.314301,101.298264 
	C335.408203,101.298264 331.842712,101.298264 327.628906,101.298264 
	C327.628906,97.425484 327.632080,93.479767 327.627716,89.534058 
	C327.624969,87.052788 327.379578,84.649704 324.082184,84.667931 
	C320.843628,84.685829 319.862579,86.776054 319.881714,89.659386 
	C319.906891,93.456474 319.887909,97.253853 319.887909,101.356239 
	C315.886261,101.356239 312.306702,101.356239 308.386475,101.356239 
	C308.386475,93.708290 308.386475,86.141136 308.386475,77.659302 
	C312.229736,77.924522 316.085022,78.190575 319.940338,78.456627 
	C319.902130,78.906792 319.863953,79.356949 319.825775,79.807114 
	C321.659332,79.079628 323.492859,78.352142 325.729340,77.519936 
z"/>
<path fill="#0A0967" opacity="1.000000" stroke="none" 
	d="
M111.140312,101.657120 
	C109.074760,101.657150 107.440140,101.657150 104.888481,101.657150 
	C107.622444,95.875862 110.065491,90.705910 112.512123,85.537659 
	C113.790527,82.837151 115.072128,80.138153 116.357658,77.441025 
	C120.716705,68.295509 122.502007,67.293098 132.624680,68.941071 
	C133.780594,69.129257 135.163574,70.371895 135.707748,71.484413 
	C140.446213,81.171967 145.017258,90.941429 150.080124,101.618881 
	C145.665070,101.618881 141.803802,101.634796 137.943039,101.597992 
	C137.479462,101.593567 136.684921,101.401634 136.604965,101.130867 
	C134.170547,92.888077 127.369995,97.303101 122.480621,96.250824 
	C121.864113,96.118141 121.171188,96.340553 120.161430,96.429459 
	C119.640068,101.834427 115.875145,102.211105 111.140312,101.657120 
M128.323746,80.294685 
	C127.721474,80.165665 126.631813,79.832680 126.588005,79.937363 
	C125.399719,82.776909 124.318443,85.661240 123.132523,88.764893 
	C126.159882,88.764893 128.572708,88.764893 131.483704,88.764893 
	C130.452164,85.921135 129.559006,83.458885 128.323746,80.294685 
z"/>
<path fill="#0A0968" opacity="1.000000" stroke="none" 
	d="
M229.367188,86.625732 
	C232.509827,77.611877 238.298981,75.505028 250.209152,78.957832 
	C250.209152,75.770645 250.209152,72.696136 250.209152,69.233521 
	C254.302032,69.233521 257.978302,69.233521 261.914124,69.233521 
	C261.914124,79.840134 261.914124,90.401314 261.914124,101.897446 
	C257.941071,101.501915 254.115570,101.121071 248.581802,100.570168 
	C245.463974,102.680984 240.133804,103.385811 234.936157,100.392784 
	C229.905869,97.496140 228.680298,92.534264 229.367188,86.625732 
M241.541656,86.408417 
	C241.339554,87.863411 240.508926,89.663330 241.075836,90.696312 
	C242.037628,92.448822 244.042725,95.032211 245.314850,94.875549 
	C247.133636,94.651550 249.471359,92.549728 250.109879,90.731056 
	C250.635361,89.234383 249.527893,86.039185 248.203674,85.313889 
	C246.677856,84.478180 244.119049,85.528488 241.541656,86.408417 
z"/>
<path fill="#0E0D69" opacity="1.000000" stroke="none" 
	d="
M196.859680,101.686264 
	C193.088562,100.422104 190.328003,98.655449 190.660614,94.559868 
	C190.995499,90.436676 194.214279,89.228378 197.567032,88.500618 
	C202.345688,87.463341 207.167923,86.626839 211.971542,85.704567 
	C211.990555,85.044861 212.009567,84.385147 212.028580,83.725441 
	C209.739288,83.561050 206.667450,82.375664 205.304703,83.420151 
	C200.888458,86.804993 196.527573,84.467102 192.190323,84.847771 
	C191.863632,84.306404 191.536957,83.765045 191.210266,83.223679 
	C193.486206,81.529907 195.621887,78.664742 198.065567,78.372162 
	C204.251144,77.631569 210.616989,77.584106 216.829987,78.147789 
	C221.611465,78.581596 223.721313,82.323967 223.747452,87.062149 
	C223.772903,91.673317 223.752975,96.284721 223.752975,102.099327 
	C219.936813,101.433006 215.636108,100.121346 211.323380,100.080544 
	C206.641266,100.036255 201.947937,101.174477 196.859680,101.686264 
M212.021713,91.263557 
	C208.199219,90.640488 204.859268,91.416931 202.015976,94.265915 
	C206.129898,98.381790 209.983185,97.402298 212.021713,91.263557 
z"/>
<path fill="#080766" opacity="1.000000" stroke="none" 
	d="
M137.921432,31.000999 
	C140.394226,31.000998 142.376709,31.000998 144.724030,31.000998 
	C144.724030,33.635666 144.724030,36.041985 144.724030,39.031330 
	C140.908813,39.031330 136.855255,39.031330 132.268539,39.031330 
	C132.268539,47.481068 132.268539,55.376503 132.268539,63.556007 
	C127.804420,63.556007 123.874039,63.556007 119.404785,63.556007 
	C119.404785,55.742619 119.404785,47.836334 119.404785,39.360096 
	C114.826447,39.360096 110.764160,39.360096 106.447464,39.360096 
	C106.447464,36.383682 106.447464,33.980846 106.447464,31.001001 
	C116.884987,31.001001 127.158051,31.001001 137.921432,31.000999 
z"/>
<path fill="#0A0967" opacity="1.000000" stroke="none" 
	d="
M384.605103,82.442009 
	C386.670868,77.054024 387.026276,76.941391 397.779083,78.320122 
	C393.015594,88.026741 388.854431,97.800926 383.404968,106.794495 
	C381.839142,109.378654 376.638824,110.056633 372.945465,110.947624 
	C370.629425,111.506332 368.016083,110.832718 365.094208,110.690506 
	C364.720581,108.687302 364.368011,106.797066 364.037323,105.024071 
	C364.568024,104.660355 364.802429,104.379028 365.078735,104.328903 
	C368.031952,103.793091 370.991791,103.293869 373.949829,102.784592 
	C373.064819,100.116638 372.456268,97.314285 371.238068,94.808304 
	C368.575043,89.330292 365.602448,84.002808 362.908356,78.901756 
	C376.852173,72.696526 376.701324,84.903893 380.750061,92.746056 
	C382.158234,88.961235 383.302368,85.886002 384.605103,82.442009 
z"/>
<path fill="#0D0C69" opacity="1.000000" stroke="none" 
	d="
M296.382782,79.392441 
	C301.604401,83.248375 302.451660,84.948280 302.576233,91.860817 
	C295.205292,91.860817 287.814941,91.860817 280.068115,91.860817 
	C281.225403,96.525124 284.135925,96.676659 287.466431,96.195465 
	C291.906891,95.553894 296.360107,95.000710 300.807861,94.409561 
	C300.975067,94.837563 301.142242,95.265572 301.309448,95.693581 
	C300.710480,96.540405 300.251770,97.549332 299.490265,98.208344 
	C293.610870,103.296509 278.763275,103.685928 272.614685,98.978485 
	C265.350525,93.416962 266.590698,82.861725 275.177246,79.113152 
	C282.037720,76.118111 289.105591,76.499229 296.382782,79.392441 
M286.399841,82.913933 
	C283.381531,82.677505 280.994995,83.417618 280.059052,86.916992 
	C283.724792,86.916992 287.084839,86.916992 291.964264,86.916992 
	C289.599274,84.983849 288.412079,84.013451 286.399841,82.913933 
z"/>
<path fill="#090867" opacity="1.000000" stroke="none" 
	d="
M286.532837,53.096039 
	C281.039124,53.751995 275.609161,54.009567 270.177155,54.212452 
	C268.244690,54.284626 266.307281,54.223995 263.824280,54.223995 
	C265.287079,58.610909 267.993347,59.016617 271.407410,58.446568 
	C275.822754,57.709324 280.273804,57.185921 284.709503,56.570450 
	C284.871552,57.052032 285.033630,57.533615 285.195679,58.015198 
	C284.571075,58.845558 284.074219,59.826477 283.301453,60.482243 
	C277.602570,65.318375 262.794281,65.768616 256.766815,61.351295 
	C249.659256,56.142418 250.141678,46.003014 258.011902,41.909790 
	C265.215759,38.163147 272.851105,38.443989 280.207703,41.650131 
	C284.835419,43.666973 286.451569,47.846565 286.532837,53.096039 
M270.179016,44.995823 
	C266.979065,44.878937 264.431213,45.581017 264.201782,49.304527 
	C267.792206,49.304527 271.098633,49.304527 274.405060,49.304527 
	C274.550568,48.951412 274.696045,48.598293 274.841522,48.245178 
	C273.545319,47.198605 272.249115,46.152031 270.179016,44.995823 
z"/>
<path fill="#090867" opacity="1.000000" stroke="none" 
	d="
M161.465790,56.279907 
	C164.107651,57.150219 166.548615,58.166691 168.958191,58.097015 
	C173.246292,57.973022 177.515381,57.191608 181.792419,56.685165 
	C182.340012,57.588676 182.887604,58.492188 183.435196,59.395699 
	C182.089905,59.996696 180.604126,60.398735 179.423218,61.232555 
	C173.811279,65.195107 159.638412,65.451553 154.023102,61.582111 
	C146.607025,56.471798 147.008316,45.970718 155.086746,41.849838 
	C162.306000,38.167229 169.967072,38.388149 177.272919,41.731194 
	C182.210663,43.990631 183.778458,48.432419 183.336578,54.224304 
	C177.061890,54.224304 170.941193,54.133507 164.827637,54.301777 
	C163.621262,54.334984 162.442352,55.365929 161.465790,56.279907 
M171.239044,47.990795 
	C167.273071,43.328781 163.146439,43.831661 160.864410,50.211365 
	C164.668442,49.674274 168.016754,49.201527 171.239044,47.990795 
z"/>
<path fill="#0E0D69" opacity="1.000000" stroke="none" 
	d="
M296.368866,56.600937 
	C298.742126,56.991680 300.690491,57.511806 302.671051,57.834274 
	C305.316681,58.265018 307.987305,58.542343 310.647186,58.885555 
	C310.800781,58.136814 310.954376,57.388073 311.107971,56.639336 
	C309.582520,56.099869 308.091919,55.406448 306.524597,55.052116 
	C302.963226,54.246956 299.216949,54.020721 295.815033,52.805489 
	C290.734253,50.990547 289.636719,45.919991 293.201385,42.564632 
	C298.114288,37.940220 314.306244,38.295547 318.994324,43.161118 
	C319.538574,43.725952 319.887878,44.478645 320.327545,45.144238 
	C320.202271,45.685684 320.076996,46.227135 319.951691,46.768581 
	C315.866882,46.173923 311.791718,45.495663 307.692932,45.021862 
	C305.802521,44.803337 303.865875,44.984615 301.950195,44.984615 
	C301.911682,45.612617 301.873138,46.240616 301.834625,46.868618 
	C303.622833,47.270752 305.408508,47.684757 307.199829,48.072517 
	C310.758057,48.842747 314.531982,49.093754 317.828339,50.481743 
	C322.462646,52.433105 323.080261,57.213463 319.670074,60.657906 
	C314.679169,65.698944 296.882538,65.721909 291.936951,60.638756 
	C291.168671,59.849129 290.702362,58.765766 289.738586,57.258678 
	C292.171112,57.017616 294.064697,56.829964 296.368866,56.600937 
z"/>
<path fill="#0E0D69" opacity="1.000000" stroke="none" 
	d="
M164.740295,85.950714 
	C163.295822,89.448105 162.791855,92.694595 166.163223,94.706886 
	C169.150131,96.489708 171.794098,95.140198 174.900421,93.655602 
	C178.055786,92.147591 182.231888,92.775345 186.368454,92.434181 
	C183.853943,99.722725 179.118774,102.195053 169.457977,102.114532 
	C160.121628,102.036720 154.161072,99.035629 152.392441,93.522232 
	C150.779572,88.494377 152.530045,83.320091 156.869690,80.287712 
	C162.537247,76.327400 175.417862,76.064034 181.320496,79.716187 
	C183.304031,80.943466 185.406555,81.978447 187.454681,83.101318 
	C186.811234,83.918877 186.167770,84.736435 185.524307,85.553993 
	C181.301117,85.451920 177.228729,88.142639 172.713364,84.552231 
	C171.312408,83.438263 167.637726,85.183769 164.740295,85.950714 
z"/>
<path fill="#0D0C69" opacity="1.000000" stroke="none" 
	d="
M223.631226,63.671822 
	C215.682190,60.939461 212.575668,56.936260 213.251816,50.699718 
	C213.889771,44.815319 218.416733,40.356548 225.662430,39.932243 
	C230.846893,39.628635 236.220398,40.265873 241.296188,41.420948 
	C243.609894,41.947468 245.408340,44.738144 247.136459,47.049683 
	C242.567429,47.768032 238.530487,50.316040 233.994003,46.777798 
	C232.576004,45.671810 228.057663,46.863697 226.280243,48.468048 
	C225.034592,49.592403 225.030960,54.370777 226.262405,55.423313 
	C228.073486,56.971252 232.766708,58.020691 233.978226,56.882778 
	C238.440720,52.691364 242.933395,55.427963 247.509186,55.244663 
	C244.775223,63.181145 238.451843,65.410828 223.631226,63.671822 
z"/>
<path fill="#0C0B68" opacity="1.000000" stroke="none" 
	d="
M191.147919,39.972298 
	C195.016769,40.381779 198.700027,41.830460 201.758789,40.994427 
	C207.348007,39.466774 207.193893,38.902943 212.296616,40.942204 
	C210.985077,44.286240 210.241653,47.633282 205.106201,47.155602 
	C203.901321,47.043530 201.538040,50.335655 201.164536,52.333935 
	C200.509827,55.836811 200.981812,59.550274 200.981812,63.514408 
	C196.867828,63.514408 193.303680,63.514408 189.095261,63.514408 
	C189.095261,56.044785 189.075821,48.485363 189.162369,40.927151 
	C189.166031,40.606094 190.152222,40.296284 191.147919,39.972298 
z"/>
<path fill="#080766" opacity="1.000000" stroke="none" 
	d="
M95.162994,81.754387 
	C94.598969,81.188034 93.590393,80.080566 93.826126,79.411545 
	C99.417046,63.544437 100.397202,47.033783 100.727936,30.447660 
	C100.806282,26.518602 100.261002,22.577110 100.025269,18.986851 
	C93.514198,18.986851 87.149597,19.309855 80.831802,18.904123 
	C73.138817,18.410076 65.788918,16.383789 59.352070,11.844598 
	C59.243717,11.768190 59.257069,11.260386 59.372250,11.179356 
	C59.616634,11.007427 59.965794,10.984432 60.641769,10.841032 
	C67.535240,12.789550 73.940742,15.608566 80.615295,16.581076 
	C87.528755,17.588396 94.703094,16.805271 103.123955,16.805271 
	C102.543762,27.966347 102.072281,39.650112 101.273643,51.311466 
	C100.866150,57.261421 99.871574,63.171169 98.796608,69.582138 
	C98.414391,70.369080 98.377937,70.672974 98.341484,70.976868 
	C98.275948,71.718330 98.210403,72.459793 97.792313,73.624847 
	C97.382805,74.361084 97.325844,74.673729 97.268890,74.986382 
	C97.230606,75.435242 97.192322,75.884102 96.808868,76.701660 
	C96.397942,77.375984 96.332184,77.681602 96.266418,77.987221 
	C95.943649,79.130661 95.620888,80.274094 95.162994,81.754387 
z"/>
<path fill="#2E2E7E" opacity="1.000000" stroke="none" 
	d="
M60.593121,117.125755 
	C71.968063,108.726578 81.939751,98.946480 90.042046,87.309113 
	C90.312553,86.920578 91.092285,86.886581 91.888161,86.845062 
	C91.552513,88.333061 91.196037,89.840736 90.338043,90.966011 
	C82.164566,101.685745 72.964806,111.373352 61.268463,118.456360 
	C60.767971,117.708214 60.680546,117.416985 60.593121,117.125755 
z"/>
<path fill="#030362" opacity="1.000000" stroke="none" 
	d="
M30.990038,17.973082 
	C23.233753,17.973082 15.477468,17.973082 8.004704,17.973082 
	C8.004704,30.319681 8.004704,42.689861 7.788831,55.525112 
	C7.386073,55.992691 7.199188,55.995201 7.012303,55.997711 
	C6.489731,44.543274 5.924267,33.090462 5.490285,21.632671 
	C5.424294,19.890402 5.968151,18.125036 6.283503,16.011282 
	C13.949828,16.011282 21.543041,16.011282 29.689863,16.306431 
	C30.492329,17.058746 30.741182,17.515913 30.990038,17.973082 
z"/>
<path fill="#202075" opacity="1.000000" stroke="none" 
	d="
M6.941559,56.431557 
	C7.199188,55.995201 7.386073,55.992691 7.853094,55.979233 
	C9.303581,60.686039 10.219803,65.485817 11.709265,70.100571 
	C13.529332,75.739624 15.865533,81.210686 17.886871,86.787628 
	C18.204441,87.663811 18.037302,88.715683 18.064816,90.125549 
	C14.669703,82.092613 11.158659,73.673645 8.027480,65.115692 
	C7.094552,62.565865 7.226679,59.626362 6.941559,56.431557 
z"/>
<path fill="#2E2E7E" opacity="1.000000" stroke="none" 
	d="
M31.401802,18.037292 
	C30.741182,17.515913 30.492329,17.058746 30.114847,16.371925 
	C37.094685,13.379117 44.203148,10.615961 51.651382,7.719203 
	C51.606705,8.746189 51.525375,10.650958 50.790173,10.950421 
	C44.532001,13.499505 38.154980,15.756792 31.401802,18.037292 
z"/>
<path fill="#202075" opacity="1.000000" stroke="none" 
	d="
M60.238785,117.249947 
	C60.680546,117.416985 60.767971,117.708214 60.921997,118.450661 
	C56.396038,123.429001 51.889832,122.741844 47.252289,118.864876 
	C44.591457,116.640427 41.691418,114.702118 38.808235,112.289795 
	C41.864712,113.517410 45.290333,114.708961 48.092690,116.754395 
	C52.079445,119.664322 55.751495,120.840378 60.238785,117.249947 
z"/>
<path fill="#2E2E7E" opacity="1.000000" stroke="none" 
	d="
M19.917175,93.313843 
	C20.515181,92.926384 21.514015,92.588409 21.764196,92.884018 
	C25.108177,96.835258 28.347479,100.875076 31.301109,105.074219 
	C27.316257,101.389671 23.643118,97.523766 19.917175,93.313843 
z"/>
<path fill="#F2F2F7" opacity="1.000000" stroke="none" 
	d="
M97.443771,74.852982 
	C97.325844,74.673729 97.382805,74.361084 97.706596,73.988380 
	C97.945122,74.232422 97.826859,74.496170 97.443771,74.852982 
z"/>
<path fill="#F2F2F7" opacity="1.000000" stroke="none" 
	d="
M98.504852,70.845375 
	C98.377937,70.672974 98.414391,70.369080 98.716026,70.006668 
	C98.962509,70.238396 98.858185,70.493645 98.504852,70.845375 
z"/>
<path fill="#F2F2F7" opacity="1.000000" stroke="none" 
	d="
M96.441055,77.864464 
	C96.332184,77.681602 96.397942,77.375984 96.730209,77.030388 
	C96.952179,77.282684 96.825172,77.533112 96.441055,77.864464 
z"/>
<path fill="#060565" opacity="1.000000" stroke="none" 
	d="
M49.986351,103.041275 
	C48.292923,103.935295 46.599495,104.829308 44.841930,105.757187 
	C21.401510,91.310669 9.398836,58.156132 15.398080,23.557318 
	C28.829723,26.023685 41.846790,25.261360 53.588993,17.057392 
	C54.067059,17.323471 54.545120,17.589548 55.023182,17.855627 
	C54.265415,19.790913 53.782475,21.900846 52.688438,23.622442 
	C50.833401,26.541573 52.307888,28.928625 57.167679,29.938354 
	C57.059574,33.239365 57.204796,36.686260 55.771259,39.250580 
	C53.237667,43.782703 53.437527,44.847004 58.861870,45.823162 
	C59.262726,46.707611 59.631130,47.318806 59.999779,48.292217 
	C59.999916,49.378689 59.999809,50.102940 59.622498,50.918907 
	C56.430195,51.428688 55.306042,53.087208 55.313873,55.848850 
	C53.980572,57.238327 53.025787,58.632763 52.071003,60.027199 
	C53.688072,60.758102 55.305141,61.489002 56.936150,62.546967 
	C57.608025,64.190315 58.265957,65.506599 58.534599,66.862022 
	C55.991051,66.916183 52.506081,66.138992 51.935764,67.096985 
	C50.321320,69.808830 49.826565,73.214249 49.097862,76.393944 
	C49.001404,76.814850 50.084446,77.975273 50.660530,78.003944 
	C54.061874,78.173309 54.899593,80.815384 55.700661,83.335556 
	C51.002724,82.391846 47.076588,86.173042 47.757618,90.876289 
	C48.036758,92.804054 47.518520,95.595566 51.091843,94.804779 
	C51.478775,96.151489 51.865704,97.498199 52.611652,99.022919 
	C52.970673,99.200935 52.861774,99.379250 52.495171,99.442413 
	C52.114960,99.995560 52.101357,100.485535 52.002525,101.175896 
	C51.917294,101.376282 51.947090,101.810776 51.736862,101.945023 
	C51.185383,102.196602 50.959660,102.427094 50.608810,102.759018 
	C50.368164,102.747314 49.986351,103.041275 49.986351,103.041275 
M24.469124,51.306217 
	C26.217867,51.853317 27.966608,52.400417 29.955006,53.022495 
	C29.268885,56.449734 28.576057,59.910477 27.982492,62.875393 
	C34.911312,62.875393 41.342148,62.875393 47.939526,62.875393 
	C47.337822,60.187531 47.156479,57.072685 45.905209,54.472771 
	C44.781136,52.137157 42.758396,49.071857 40.642643,48.619953 
	C36.364025,47.706093 31.747551,48.223083 27.285051,48.444832 
	C26.360836,48.490753 25.500374,49.819656 24.469124,51.306217 
z"/>
<path fill="#060565" opacity="1.000000" stroke="none" 
	d="
M65.056053,30.145809 
	C71.380318,29.906670 71.901360,29.442322 71.737183,24.563499 
	C79.310944,24.563499 86.896576,24.563499 94.817627,24.563499 
	C96.342918,56.354168 95.029045,87.314171 63.444538,107.154846 
	C63.134254,105.485344 59.019188,106.315636 60.366508,102.266357 
	C60.946655,100.522766 59.048733,97.954643 58.648888,95.402344 
	C60.614182,94.277504 62.207191,93.511436 63.800201,92.745369 
	C62.935726,91.403053 62.014366,90.092392 61.239750,88.700081 
	C60.991512,88.253906 61.131279,87.591873 61.345280,86.801216 
	C61.390949,84.047508 61.184860,81.521187 61.347191,78.921097 
	C65.470383,79.044464 66.974899,77.856110 64.767212,74.125671 
	C64.211868,73.187279 64.070091,72.004128 63.926598,70.557297 
	C63.759159,67.786896 63.403381,65.392662 63.241776,62.812187 
	C63.952782,62.485661 64.469620,62.345375 65.402466,62.368771 
	C67.045578,61.703499 68.272675,60.874542 69.499771,60.045589 
	C68.350014,58.648869 67.200256,57.252151 66.203232,55.513184 
	C68.579964,52.544716 66.984024,51.196205 64.611168,49.741982 
	C64.949692,48.566143 65.334236,47.740498 66.003006,46.657101 
	C68.101173,45.422256 69.915115,44.445164 71.729057,43.468067 
	C70.932022,42.258904 70.134979,41.049736 69.227478,39.510731 
	C70.238380,35.488297 68.974991,33.362476 65.076805,32.632042 
	C65.089363,31.566738 65.072708,30.856274 65.056053,30.145809 
z"/>
<path fill="#F0EFF6" opacity="1.000000" stroke="none" 
	d="
M65.024101,29.711939 
	C65.072708,30.856274 65.089363,31.566738 64.743530,32.655212 
	C63.951065,33.711151 63.521084,34.389080 63.064468,35.300102 
	C63.037830,35.533192 62.992550,36.000221 62.996506,36.000305 
	C63.000458,36.000389 62.998188,35.992779 62.827198,36.088860 
	C62.767296,36.475945 62.878384,36.766941 63.129223,37.368073 
	C63.483280,38.758396 63.697582,39.838581 63.533043,40.924835 
	C61.624317,40.794479 60.094425,40.658058 58.528328,40.518410 
	C58.640495,42.392857 58.734955,43.971382 58.829414,45.549908 
	C53.437527,44.847004 53.237667,43.782703 55.771259,39.250580 
	C57.204796,36.686260 57.059574,33.239365 57.553062,29.817341 
	C57.480675,29.444685 57.725910,29.227692 58.143494,29.000984 
	C59.382450,28.184803 60.203823,27.595329 61.099998,26.907310 
	C61.174801,26.808767 61.275356,26.582682 61.516953,26.488480 
	C62.248928,26.440119 62.739307,26.485960 63.229691,26.531799 
	C63.817177,27.447224 64.404663,28.362646 65.024101,29.711939 
z"/>
<path fill="#E0DFEC" opacity="1.000000" stroke="none" 
	d="
M61.093521,87.028595 
	C61.131279,87.591873 60.991512,88.253906 61.239750,88.700081 
	C62.014366,90.092392 62.935726,91.403053 63.800201,92.745369 
	C62.207191,93.511436 60.614182,94.277504 58.630470,95.063477 
	C56.229740,94.739861 54.219711,94.396355 51.594398,93.954674 
	C51.700565,92.466454 50.173119,89.490211 53.819832,90.355377 
	C54.601971,90.834335 55.226578,91.010254 55.851185,91.186165 
	C55.563553,90.318153 55.275917,89.450142 54.981339,88.329132 
	C54.974442,87.738701 54.974480,87.401268 55.230419,86.970749 
	C55.676540,86.577370 55.866764,86.277061 56.424221,86.023331 
	C58.225475,86.389458 59.659496,86.709030 61.093521,87.028595 
z"/>
<path fill="#C2C0D9" opacity="1.000000" stroke="none" 
	d="
M53.662304,90.052322 
	C50.173119,89.490211 51.700565,92.466454 51.218159,93.948029 
	C51.457195,94.039566 51.292744,94.430878 51.192291,94.617828 
	C47.518520,95.595566 48.036758,92.804054 47.757618,90.876289 
	C47.076588,86.173042 51.002724,82.391846 55.527302,83.624054 
	C53.909092,85.160744 51.823708,86.446159 53.997284,89.311699 
	C53.821987,89.727837 53.742146,89.890083 53.662304,90.052322 
z"/>
<path fill="#E3E2ED" opacity="1.000000" stroke="none" 
	d="
M57.816334,28.046394 
	C57.420769,26.298927 57.025208,24.551460 56.629642,22.803995 
	C57.955299,22.709970 59.280956,22.615946 60.731941,23.160843 
	C60.996632,24.727402 61.135994,25.655041 61.275360,26.582682 
	C61.275356,26.582682 61.174801,26.808767 60.741180,26.875761 
	C59.477154,27.310635 58.646744,27.678514 57.816334,28.046394 
z"/>
<path fill="#BCBAD6" opacity="1.000000" stroke="none" 
	d="
M51.947090,101.810776 
	C51.947090,101.810776 51.917294,101.376282 52.265537,101.220467 
	C52.791401,101.055672 52.969017,101.046700 53.343376,101.031303 
	C53.540119,101.024887 53.933807,101.021736 53.933807,101.021736 
	C54.330135,101.065567 54.726467,101.109398 55.590500,101.361588 
	C56.329258,101.794922 56.600311,102.019897 56.871368,102.244873 
	C56.871368,102.244873 56.826473,102.623390 56.843124,103.034988 
	C56.859772,103.446594 56.755653,103.881859 56.755653,103.881859 
	C56.350040,103.929123 55.944427,103.976387 55.097076,103.876129 
	C53.752590,103.089317 52.849842,102.450050 51.947090,101.810776 
z"/>
<path fill="#49468F" opacity="1.000000" stroke="none" 
	d="
M61.516953,26.488480 
	C61.135994,25.655041 60.996632,24.727402 60.938560,23.435818 
	C61.831230,24.022919 62.642612,24.973961 63.341843,26.228403 
	C62.739307,26.485960 62.248928,26.440119 61.516953,26.488480 
z"/>
<path fill="#EBEBF3" opacity="1.000000" stroke="none" 
	d="
M51.736862,101.945023 
	C52.849842,102.450050 53.752590,103.089317 54.831837,104.032593 
	C55.008331,104.336594 55.028542,104.630127 54.705612,104.692947 
	C53.954041,104.864014 53.525406,104.972244 52.790489,104.951172 
	C51.939293,104.138138 51.394379,103.454430 50.849464,102.770721 
	C50.959660,102.427094 51.185383,102.196602 51.736862,101.945023 
z"/>
<path fill="#49468F" opacity="1.000000" stroke="none" 
	d="
M53.096767,105.080482 
	C53.525406,104.972244 53.954041,104.864014 54.703575,104.840057 
	C54.969357,105.764099 54.914238,106.603867 54.859116,107.443634 
	C54.214893,107.223740 53.570671,107.003838 52.910446,106.211777 
	C52.961884,105.453247 53.029327,105.266861 53.096767,105.080482 
z"/>
<path fill="#BCBAD6" opacity="1.000000" stroke="none" 
	d="
M52.790489,104.951172 
	C53.029327,105.266861 52.961884,105.453247 52.737473,105.892281 
	C51.706875,105.341240 50.833241,104.537552 49.972977,103.387573 
	C49.986351,103.041275 50.368164,102.747314 50.608814,102.759018 
	C51.394379,103.454430 51.939293,104.138138 52.790489,104.951172 
z"/>
<path fill="#BCBAD6" opacity="1.000000" stroke="none" 
	d="
M57.877197,28.287285 
	C58.646744,27.678514 59.477154,27.310635 60.666382,26.974304 
	C60.203823,27.595329 59.382450,28.184803 58.271362,28.898727 
	C57.981655,29.023180 57.938061,28.528173 57.877197,28.287285 
z"/>
<path fill="#C2C0D9" opacity="1.000000" stroke="none" 
	d="
M54.076649,100.691040 
	C53.933807,101.021736 53.540119,101.024887 53.263931,100.617813 
	C52.945747,99.933571 52.903759,99.656410 52.861774,99.379250 
	C52.861774,99.379250 52.970673,99.200935 52.932144,99.188744 
	C53.396149,99.050468 53.898685,98.924377 54.401222,98.798294 
	C54.340645,99.318977 54.280067,99.839661 54.076649,100.691040 
z"/>
<path fill="#6C6CA6" opacity="1.000000" stroke="none" 
	d="
M56.416702,109.412430 
	C56.305401,109.547211 56.070778,109.566765 55.836159,109.586319 
	C55.988571,109.489944 56.140980,109.393578 56.416702,109.412430 
z"/>
<path fill="#EBEBF3" opacity="1.000000" stroke="none" 
	d="
M56.797054,101.961334 
	C56.600311,102.019897 56.329258,101.794922 55.889648,101.364670 
	C56.054977,101.332191 56.388859,101.504997 56.797054,101.961334 
z"/>
<path fill="#060565" opacity="1.000000" stroke="none" 
	d="
M54.369904,16.409191 
	C54.627892,16.433270 54.674568,16.631308 54.721241,16.829350 
	C54.533691,16.747284 54.346138,16.665218 54.369904,16.409191 
z"/>
<path fill="#EBEBF3" opacity="1.000000" stroke="none" 
	d="
M56.965492,103.854568 
	C56.755653,103.881859 56.859772,103.446594 56.873703,103.223106 
	C57.081509,103.177467 57.275375,103.355324 57.469246,103.533173 
	C57.371277,103.631210 57.273304,103.729240 56.965492,103.854568 
z"/>
<path fill="#E8E7F1" opacity="1.000000" stroke="none" 
	d="
M128.494797,80.645660 
	C129.559006,83.458885 130.452164,85.921135 131.483704,88.764893 
	C128.572708,88.764893 126.159882,88.764893 123.132523,88.764893 
	C124.318443,85.661240 125.399719,82.776909 126.588005,79.937363 
	C126.631813,79.832680 127.721474,80.165665 128.494797,80.645660 
z"/>
<path fill="#F2F2F7" opacity="1.000000" stroke="none" 
	d="
M241.775253,86.084076 
	C244.119049,85.528488 246.677856,84.478180 248.203674,85.313889 
	C249.527893,86.039185 250.635361,89.234383 250.109879,90.731056 
	C249.471359,92.549728 247.133636,94.651550 245.314850,94.875549 
	C244.042725,95.032211 242.037628,92.448822 241.075836,90.696312 
	C240.508926,89.663330 241.339554,87.863411 241.775253,86.084076 
z"/>
<path fill="#EBEBF3" opacity="1.000000" stroke="none" 
	d="
M212.082657,91.686264 
	C209.983185,97.402298 206.129898,98.381790 202.015976,94.265915 
	C204.859268,91.416931 208.199219,90.640488 212.082657,91.686264 
z"/>
<path fill="#EBEBF3" opacity="1.000000" stroke="none" 
	d="
M286.812378,82.978493 
	C288.412079,84.013451 289.599274,84.983849 291.964264,86.916992 
	C287.084839,86.916992 283.724792,86.916992 280.059052,86.916992 
	C280.994995,83.417618 283.381531,82.677505 286.812378,82.978493 
z"/>
<path fill="#D9D8E7" opacity="1.000000" stroke="none" 
	d="
M270.565979,45.050640 
	C272.249115,46.152031 273.545319,47.198605 274.841522,48.245178 
	C274.696045,48.598293 274.550568,48.951412 274.405060,49.304527 
	C271.098633,49.304527 267.792206,49.304527 264.201782,49.304527 
	C264.431213,45.581017 266.979065,44.878937 270.565979,45.050640 
z"/>
<path fill="#D9D8E7" opacity="1.000000" stroke="none" 
	d="
M171.302063,48.359787 
	C168.016754,49.201527 164.668442,49.674274 160.864410,50.211365 
	C163.146439,43.831661 167.273071,43.328781 171.302063,48.359787 
z"/>
<path fill="#E3E2ED" opacity="1.000000" stroke="none" 
	d="
M24.539825,50.931732 
	C25.500374,49.819656 26.360836,48.490753 27.285051,48.444832 
	C31.747551,48.223083 36.364025,47.706093 40.642643,48.619953 
	C42.758396,49.071857 44.781136,52.137157 45.905209,54.472771 
	C47.156479,57.072685 47.337822,60.187531 47.939526,62.875393 
	C41.342148,62.875393 34.911312,62.875393 27.982492,62.875393 
	C28.576057,59.910477 29.268885,56.449734 29.955006,53.022495 
	C27.966608,52.400417 26.217867,51.853317 24.539825,50.931732 
z"/>
<path fill="#E8E7F1" opacity="1.000000" stroke="none" 
	d="
M54.092739,89.057808 
	C51.823708,86.446159 53.909092,85.160744 55.871986,83.496719 
	C54.899593,80.815384 54.061874,78.173309 50.660530,78.003944 
	C50.084446,77.975273 49.001404,76.814850 49.097862,76.393944 
	C49.826565,73.214249 50.321320,69.808830 51.935764,67.096985 
	C52.506081,66.138992 55.991051,66.916183 58.559616,67.154945 
	C58.983147,67.604500 58.992378,67.800278 58.680973,68.134270 
	C54.241783,68.992790 53.771770,72.127205 53.138340,75.820450 
	C54.765800,75.052788 55.875320,74.529434 57.253067,74.135010 
	C58.673782,75.840919 59.826279,77.417885 60.978771,78.994858 
	C61.184860,81.521187 61.390949,84.047508 61.345280,86.801224 
	C59.659496,86.709030 58.225475,86.389458 56.167637,86.116982 
	C55.354053,86.463989 55.164288,86.763908 54.974525,87.063828 
	C54.974480,87.401268 54.974442,87.738701 54.776199,88.483368 
	C54.416241,88.946327 54.254490,89.002068 54.092739,89.057808 
z"/>
<path fill="#CDCCE0" opacity="1.000000" stroke="none" 
	d="
M58.861870,45.823162 
	C58.734955,43.971382 58.640495,42.392857 58.528328,40.518410 
	C60.094425,40.658058 61.624317,40.794479 63.799538,40.953835 
	C64.622696,40.985634 64.800522,40.994499 64.976974,41.393051 
	C65.223328,43.493439 65.471054,45.204144 65.718781,46.914852 
	C65.334236,47.740498 64.949692,48.566143 64.299576,49.763725 
	C63.417179,50.198719 62.800350,50.261776 62.129658,50.259186 
	C62.075798,50.193539 62.020042,50.033123 62.220909,49.656696 
	C61.614365,48.830181 60.806950,48.380089 59.999535,47.930000 
	C59.631130,47.318806 59.262726,46.707611 58.861870,45.823162 
z"/>
<path fill="#EBEBF3" opacity="1.000000" stroke="none" 
	d="
M59.001606,67.996063 
	C58.992378,67.800278 58.983147,67.604500 58.948906,67.115807 
	C58.265957,65.506599 57.608025,64.190315 56.949657,62.264061 
	C56.956688,61.465427 56.964157,61.276760 57.322655,61.079033 
	C58.141380,61.056652 58.609077,61.043327 59.339840,61.237251 
	C60.751141,61.962479 61.899368,62.480453 63.047600,62.998428 
	C63.403381,65.392662 63.759159,67.786896 63.636051,70.557892 
	C62.771809,70.947723 62.386456,70.960785 61.863350,70.695908 
	C60.817600,69.610664 59.909603,68.803368 59.001606,67.996063 
z"/>
<path fill="#F0EFF6" opacity="1.000000" stroke="none" 
	d="
M56.971626,61.088089 
	C56.964157,61.276760 56.956688,61.465427 56.935715,61.936996 
	C55.305141,61.489002 53.688072,60.758102 52.071003,60.027199 
	C53.025787,58.632763 53.980572,57.238327 55.756321,55.873474 
	C57.757839,55.945854 58.938396,55.988651 59.982262,56.276657 
	C59.670021,57.184792 59.494469,57.847725 59.224388,58.792633 
	C59.085266,59.267807 59.040676,59.460999 58.673805,59.759850 
	C57.901081,59.897316 57.450649,59.929115 57.011360,59.664070 
	C56.929798,58.838345 56.837093,58.309464 56.744385,57.780579 
	C56.529163,57.849564 56.313946,57.918549 56.098724,57.987530 
	C56.388905,58.653919 56.679081,59.320312 56.976395,60.262035 
	C56.979565,60.720943 56.975597,60.904514 56.971626,61.088089 
z"/>
<path fill="#D9D8E7" opacity="1.000000" stroke="none" 
	d="
M60.118950,56.031456 
	C58.938396,55.988651 57.757839,55.945854 56.134834,55.878433 
	C55.306042,53.087208 56.430195,51.428688 59.906044,50.951149 
	C61.051212,50.605492 61.535629,50.319309 62.020042,50.033127 
	C62.020042,50.033123 62.075798,50.193539 62.078613,50.561646 
	C62.015156,52.700966 61.948879,54.472179 61.591125,56.189598 
	C60.906078,56.101021 60.512516,56.066238 60.118950,56.031456 
z"/>
<path fill="#060565" opacity="1.000000" stroke="none" 
	d="
M62.220909,49.656700 
	C61.535629,50.319309 61.051212,50.605492 60.283249,50.859436 
	C59.999809,50.102940 59.999916,49.378689 59.999779,48.292217 
	C60.806950,48.380089 61.614365,48.830181 62.220909,49.656700 
z"/>
<path fill="#EBEBF3" opacity="1.000000" stroke="none" 
	d="
M52.495171,99.442413 
	C52.903759,99.656410 52.945747,99.933571 53.067184,100.624222 
	C52.969017,101.046700 52.791401,101.055672 52.350769,101.020081 
	C52.101357,100.485535 52.114960,99.995560 52.495171,99.442413 
z"/>
<path fill="#E3E2ED" opacity="1.000000" stroke="none" 
	d="
M61.882599,56.243393 
	C61.948879,54.472179 62.015156,52.700966 62.132477,50.627296 
	C62.800350,50.261776 63.417179,50.198719 64.345604,50.113918 
	C66.984024,51.196205 68.579964,52.544716 66.183075,55.920929 
	C65.668930,58.515640 65.327690,60.360363 64.986450,62.205086 
	C64.469620,62.345375 63.952782,62.485661 63.241776,62.812187 
	C61.899368,62.480453 60.751141,61.962479 59.332466,60.892365 
	C59.040047,60.111549 59.018066,59.882866 58.996090,59.654186 
	C59.040676,59.460999 59.085266,59.267807 59.544327,59.023491 
	C60.600063,58.062710 61.241333,57.153049 61.882599,56.243393 
z"/>
<path fill="#BCBAD6" opacity="1.000000" stroke="none" 
	d="
M62.001099,70.973839 
	C62.386456,70.960785 62.771809,70.947723 63.447712,70.934059 
	C64.070091,72.004128 64.211868,73.187279 64.767212,74.125671 
	C66.974899,77.856110 65.470383,79.044464 61.347191,78.921097 
	C59.826279,77.417885 58.673782,75.840919 57.445145,73.846466 
	C58.913036,72.610596 60.457069,71.792221 62.001099,70.973839 
z"/>
<path fill="#D9D8E7" opacity="1.000000" stroke="none" 
	d="
M64.978340,41.003372 
	C64.800522,40.994499 64.622696,40.985634 64.178375,40.947769 
	C63.697582,39.838581 63.483280,38.758396 63.133892,37.101494 
	C62.998600,36.347443 62.998394,36.170113 62.998188,35.992779 
	C62.998188,35.992779 63.000458,36.000389 63.157745,35.923050 
	C63.384598,35.752167 63.532921,35.609077 63.510479,35.573391 
	C63.394783,35.389442 63.235306,35.233032 63.091106,35.067009 
	C63.521084,34.389080 63.951065,33.711151 64.714317,33.010056 
	C68.974991,33.362476 70.238380,35.488297 68.890503,39.570572 
	C68.109184,40.306946 67.554367,40.653633 66.999771,41.000160 
	C67.000000,41.000000 67.000496,40.999542 66.663605,41.000496 
	C65.877258,41.002090 65.427803,41.002731 64.978340,41.003372 
z"/>
<path fill="#E0DFEC" opacity="1.000000" stroke="none" 
	d="
M66.999542,41.000320 
	C67.554367,40.653633 68.109184,40.306946 69.000977,39.900414 
	C70.134979,41.049736 70.932022,42.258904 71.729057,43.468067 
	C69.915115,44.445164 68.101173,45.422256 66.003006,46.657101 
	C65.471054,45.204144 65.223328,43.493439 64.976974,41.393051 
	C65.427803,41.002731 65.877258,41.002090 66.674438,41.239330 
	C67.137024,41.751419 67.251907,42.025627 67.366783,42.299835 
	C67.490044,42.214481 67.613304,42.129128 67.736565,42.043777 
	C67.490891,41.695961 67.245216,41.348141 66.999542,41.000320 
z"/>
<path fill="#EBEBF3" opacity="1.000000" stroke="none" 
	d="
M65.402466,62.368771 
	C65.327690,60.360363 65.668930,58.515640 66.030327,56.263176 
	C67.200256,57.252151 68.350014,58.648869 69.499771,60.045589 
	C68.272675,60.874542 67.045578,61.703499 65.402466,62.368771 
z"/>
<path fill="#CDCCE0" opacity="1.000000" stroke="none" 
	d="
M63.064468,35.300102 
	C63.235306,35.233032 63.394783,35.389442 63.510479,35.573391 
	C63.532921,35.609077 63.384598,35.752167 63.153793,35.922966 
	C62.992550,36.000221 63.037830,35.533192 63.064468,35.300102 
z"/>
<path fill="#CDCCE0" opacity="1.000000" stroke="none" 
	d="
M62.827198,36.088860 
	C62.998394,36.170113 62.998600,36.347443 62.994141,36.791359 
	C62.878384,36.766941 62.767296,36.475945 62.827198,36.088860 
z"/>
<path fill="#49468F" opacity="1.000000" stroke="none" 
	d="
M53.997284,89.311699 
	C54.254490,89.002068 54.416241,88.946327 54.783138,88.736359 
	C55.275917,89.450142 55.563553,90.318153 55.851185,91.186165 
	C55.226578,91.010254 54.601971,90.834335 53.819832,90.355377 
	C53.742146,89.890083 53.821987,89.727837 53.997284,89.311699 
z"/>
<path fill="#BCBAD6" opacity="1.000000" stroke="none" 
	d="
M55.230423,86.970749 
	C55.164288,86.763908 55.354053,86.463989 55.800404,86.070419 
	C55.866764,86.277061 55.676540,86.577370 55.230423,86.970749 
z"/>
<path fill="#E0DFEC" opacity="1.000000" stroke="none" 
	d="
M61.863350,70.695908 
	C60.457069,71.792221 58.913036,72.610596 57.176926,73.717529 
	C55.875320,74.529434 54.765800,75.052788 53.138340,75.820450 
	C53.771770,72.127205 54.241783,68.992790 58.680973,68.134270 
	C59.909603,68.803368 60.817600,69.610664 61.863350,70.695908 
z"/>
<path fill="#BCBAD6" opacity="1.000000" stroke="none" 
	d="
M58.673805,59.759850 
	C59.018066,59.882866 59.040047,60.111549 59.069397,60.685120 
	C58.609077,61.043327 58.141380,61.056652 57.322655,61.079033 
	C56.975597,60.904514 56.979565,60.720943 56.993935,60.268562 
	C57.004330,59.999752 57.000214,59.960915 57.000214,59.960915 
	C57.450649,59.929115 57.901081,59.897316 58.673805,59.759850 
z"/>
<path fill="#6C6CA6" opacity="1.000000" stroke="none" 
	d="
M61.591122,56.189598 
	C61.241333,57.153049 60.600063,58.062710 59.638855,58.741512 
	C59.494469,57.847725 59.670021,57.184792 59.982262,56.276657 
	C60.512516,56.066238 60.906078,56.101021 61.591122,56.189598 
z"/>
<path fill="#D9D8E7" opacity="1.000000" stroke="none" 
	d="
M56.986794,59.993225 
	C56.679081,59.320312 56.388905,58.653919 56.098724,57.987530 
	C56.313946,57.918549 56.529163,57.849564 56.744385,57.780579 
	C56.837093,58.309464 56.929798,58.838345 57.011360,59.664070 
	C57.000214,59.960915 57.004330,59.999752 56.986794,59.993225 
z"/>
<path fill="#D9D8E7" opacity="1.000000" stroke="none" 
	d="
M66.999771,41.000160 
	C67.245216,41.348141 67.490891,41.695961 67.736565,42.043777 
	C67.613304,42.129128 67.490044,42.214481 67.366783,42.299835 
	C67.251907,42.025627 67.137024,41.751419 67.011322,41.238377 
	C67.000496,40.999542 67.000000,41.000000 66.999771,41.000160 
z"/>
</svg>